<svg id="Capa_1" data-name="Capa 1" xmlns="http://www.w3.org/2000/svg" viewBox="0 0 623.14 568.9">
  <rect x="293.83" y="-114.07" width="41.78" height="802.19" transform="translate(313.48 -141.5) rotate(47.89)"/>
  <path d="M389.63,84.23c-27.78,0-53.25,8.8-75.71,26.17-21.52,16.64-35.85,37.85-44.29,53.27-8.44-15.42-22.77-36.63-44.29-53.27C202.89,93,177.41,84.23,149.63,84.23c-77.53,0-136,63.42-136,147.51,0,90.86,72.94,153,183.37,247.12,18.75,16,40,34.1,62.1,53.42a16,16,0,0,0,21.06,0c22.1-19.33,43.35-37.44,62.11-53.43C452.69,384.76,525.63,322.6,525.63,231.74,525.63,147.65,467.16,84.23,389.63,84.23Z" transform="translate(-3.15 -2.58)"/>
  <path d="M164.53,451.06l337.34-304.9a136.38,136.38,0,0,0-26.87-31L133.46,423.87Q148.27,437.12,164.53,451.06Z" transform="translate(-3.15 -2.58)" style="fill: #fff"/>
</svg>
